<svg width="12" height="17" viewBox="0 0 12 17" fill="none" xmlns="http://www.w3.org/2000/svg">
<path d="M5.83333 0C7.38043 0 8.86416 0.614581 9.95812 1.70854C11.0521 2.80251 11.6667 4.28624 11.6667 5.83333C11.6667 7.81667 10.675 9.55833 9.16667 10.6167V12.5C9.16667 12.721 9.07887 12.933 8.92259 13.0893C8.76631 13.2455 8.55435 13.3333 8.33333 13.3333H3.33333C3.11232 13.3333 2.90036 13.2455 2.74408 13.0893C2.5878 12.933 2.5 12.721 2.5 12.5V10.6167C0.991667 9.55833 0 7.81667 0 5.83333C0 4.28624 0.614582 2.80251 1.70854 1.70854C2.80251 0.614581 4.28624 0 5.83333 0ZM3.33333 15.8333V15H8.33333V15.8333C8.33333 16.0543 8.24554 16.2663 8.08926 16.4226C7.93298 16.5789 7.72101 16.6667 7.5 16.6667H4.16667C3.94565 16.6667 3.73369 16.5789 3.57741 16.4226C3.42113 16.2663 3.33333 16.0543 3.33333 15.8333ZM5.83333 1.66667C4.72826 1.66667 3.66846 2.10565 2.88706 2.88705C2.10565 3.66846 1.66667 4.72826 1.66667 5.83333C1.66667 7.54167 2.69167 9.00833 4.16667 9.65V11.6667H7.5V9.65C8.975 9.00833 10 7.54167 10 5.83333C10 4.72826 9.56101 3.66846 8.77961 2.88705C7.99821 2.10565 6.9384 1.66667 5.83333 1.66667Z" fill="#651E6C"/>
</svg>
