<svg width="16" height="16" viewBox="0 0 16 16" fill="none" xmlns="http://www.w3.org/2000/svg">
<g clip-path="url(#clip0_442_171)">
<path d="M7.98905 0.00178548C5.85163 0.0367775 3.81383 0.911521 2.31618 2.43692C1.56683 3.18298 0.975588 4.07246 0.577803 5.05221C0.180018 6.03195 -0.0161453 7.08184 0.00103884 8.13912C-0.000190705 9.17223 0.202465 10.1954 0.597392 11.1501C0.992318 12.1047 1.57175 12.972 2.30249 13.7023C3.03322 14.4326 3.90089 15.0116 4.85577 15.4059C5.81064 15.8003 6.83396 16.0023 7.86706 16.0005H8.00972C10.1478 15.9785 12.1898 15.1092 13.6877 13.5834C15.1857 12.0576 16.0171 9.99992 15.9997 7.86181C16.0022 6.81617 15.7955 5.7806 15.392 4.81599C14.9884 3.85137 14.396 2.9772 13.6496 2.24487C12.9032 1.51254 12.018 0.936847 11.0459 0.551636C10.0738 0.166424 9.03446 -0.0205237 7.98905 0.00178548ZM7.00047 11.0289C6.99566 10.8982 7.01696 10.7678 7.06313 10.6455C7.10929 10.5231 7.1794 10.4111 7.26933 10.3162C7.35927 10.2212 7.46724 10.1451 7.58693 10.0924C7.70661 10.0396 7.83561 10.0113 7.96639 10.009H7.98439C8.24744 10.0095 8.50008 10.1118 8.68935 10.2945C8.87862 10.4772 8.98982 10.726 8.99964 10.9889C9.00453 11.1196 8.98329 11.25 8.93716 11.3724C8.89103 11.4948 8.82093 11.6068 8.73098 11.7018C8.64102 11.7968 8.53302 11.8729 8.41329 11.9256C8.29356 11.9783 8.16452 12.0066 8.03372 12.0088H8.01572C7.75277 12.008 7.50031 11.9055 7.31111 11.7229C7.12191 11.5403 7.01061 11.2916 7.00047 11.0289ZM7.33377 8.33444V4.33476C7.33377 4.15797 7.40401 3.98841 7.52902 3.8634C7.65403 3.73838 7.82359 3.66815 8.00039 3.66815C8.17718 3.66815 8.34674 3.73838 8.47175 3.8634C8.59677 3.98841 8.667 4.15797 8.667 4.33476V8.33444C8.667 8.51124 8.59677 8.68079 8.47175 8.8058C8.34674 8.93082 8.17718 9.00105 8.00039 9.00105C7.82359 9.00105 7.65403 8.93082 7.52902 8.8058C7.40401 8.68079 7.33377 8.51124 7.33377 8.33444Z" fill="#E28820"/>
</g>
<defs>
<clipPath id="clip0_442_171">
<rect width="16" height="16" fill="white"/>
</clipPath>
</defs>
</svg>
