<svg width="122" height="36" viewBox="0 0 122 36" fill="none" xmlns="http://www.w3.org/2000/svg">
<path d="M117.176 0.0194569C114.506 0.257693 111.611 1.18898 108.216 2.89996C106.214 3.90344 104.371 4.98634 103.667 5.5711C102.499 6.52405 101.796 7.76577 101.796 8.85589C101.796 9.31792 102.057 10.2564 102.318 10.7546C102.746 11.5487 103.624 12.2129 104.516 12.4222L104.734 12.48L104.545 12.2706C104.168 11.8736 104.045 11.592 104.045 11.13C104.045 10.3503 104.538 9.74386 105.996 8.71872C108.601 6.88502 112.605 5.11629 116.211 4.19222C118.67 3.56414 120.36 3.74462 121.006 4.69757L121.245 5.05131L121.209 4.76976C120.948 2.81333 120.767 2.15637 120.295 1.34059C119.969 0.799142 119.541 0.380422 119.098 0.1855C118.779 0.0411148 117.828 -0.0382977 117.176 0.0194569Z" fill="white"/>
<path d="M117.705 4.66148C117.168 4.74811 117.081 4.79143 117.139 4.93581C117.4 5.62165 117.516 8.89199 117.328 10.5163C117.197 11.6642 116.979 13.007 116.769 13.9455L116.595 14.7396L116.812 15.18C117.088 15.7431 117.625 16.3495 118.009 16.5156C118.662 16.8116 119.475 16.595 120.244 15.9164L120.592 15.606L120.701 14.884C121.078 12.3861 121.252 10.3359 121.26 8.31445C121.267 6.96444 121.245 6.58182 121.143 6.24973C120.919 5.50614 120.469 5.02245 119.765 4.76977C119.402 4.63982 118.242 4.58207 117.705 4.66148Z" fill="white"/>
<path d="M108.129 9.07186C109.196 9.77935 110.218 11.4326 111.009 13.7139C111.502 15.1505 111.742 15.7425 112.206 16.6882C112.975 18.262 113.94 19.4677 114.789 19.9369C115.159 20.1463 115.217 20.1535 116.015 20.1463C116.726 20.1463 116.929 20.1174 117.379 19.9514C118.895 19.4099 119.86 18.3848 120.281 16.8543L120.353 16.5872L119.947 16.9192C119.388 17.3741 119.047 17.5184 118.518 17.5184C117.756 17.5184 117.139 17.0492 116.53 16.0168C116.37 15.7425 116.196 15.4176 116.153 15.3021C115.971 14.8184 115.217 13.1796 114.528 11.7719C113.701 10.0898 113.548 9.88764 112.714 9.4978C112.148 9.23069 111.053 9.07908 108.434 8.89138L107.781 8.84806L108.129 9.07186Z" fill="white"/>
<path d="M106.264 9.46933C105.444 10.0324 104.914 10.7255 104.914 11.2308C104.914 11.5557 105.147 11.9744 105.502 12.2704C105.829 12.552 105.879 12.5664 106.801 12.6819C107.824 12.8119 109.354 13.0501 109.528 13.1151C109.615 13.1512 109.804 13.2811 109.949 13.4111L110.218 13.6421L110.065 13.2595C109.332 11.4041 108.223 9.89527 107.229 9.39714C106.779 9.16612 106.692 9.17334 106.264 9.46933Z" fill="white"/>
<path d="M95.3395 22.1174C95.3467 29.0769 95.354 29.64 95.4701 29.9793C95.8546 31.0694 96.5292 31.3076 99.2787 31.3076H100.635V30.0442V28.7809H99.9316C99.0756 28.7809 98.7999 28.6581 98.6838 28.225C98.6331 28.0517 98.604 26.6584 98.604 24.3699V20.7891L99.0393 20.7458C99.5689 20.688 99.9534 20.5003 100.258 20.161C100.534 19.8506 100.635 19.5041 100.635 18.9048V18.4573H99.6197H98.604V17.1578C98.604 15.6706 98.5315 15.389 98.0237 14.992C97.6102 14.6671 97.4433 14.631 96.3479 14.631H95.3395V22.1174Z" fill="white"/>
<path d="M6.07126 18.1755C4.64936 18.3344 3.03158 19.013 2.19005 19.8071C1.41381 20.5362 0.964028 21.5397 0.811682 22.897C0.768154 23.2796 0.739136 26.1023 0.739136 29.7697V36H1.75478C2.87198 36 3.14766 35.935 3.5249 35.5813C3.98919 35.1481 4.0037 35.0759 4.0037 32.2604C4.0037 30.7732 4.03272 29.7192 4.06899 29.7192C4.10526 29.7192 4.25036 29.8708 4.38819 30.0657C5.47638 31.5312 7.92843 31.9644 9.87992 31.0331C10.3007 30.831 10.5618 30.6288 11.0406 30.1524C12.3537 28.8457 12.9268 27.2069 12.9268 24.774C12.9268 23.0702 12.7092 22.0523 12.0708 20.8034C11.3091 19.3162 9.87992 18.421 7.8849 18.1755C7.15219 18.0889 6.90553 18.0889 6.07126 18.1755ZM7.31179 20.9911C8.63213 21.2293 9.39386 22.2689 9.58973 24.117C9.72757 25.3948 9.50268 26.716 9.00936 27.474C8.39998 28.4269 7.51492 28.824 6.41222 28.6435C5.81009 28.5497 5.37482 28.3187 4.98307 27.9072C4.3229 27.2069 4.05448 26.3189 4.04723 24.8823C4.03997 23.3446 4.35192 22.2978 4.99032 21.6625C5.36031 21.2871 5.65775 21.1282 6.18008 21.0127C6.69515 20.8972 6.79672 20.8972 7.31179 20.9911Z" fill="white"/>
<path d="M17.8236 18.1754C17.1126 18.2476 16.3654 18.4714 15.7923 18.7674C15.27 19.0489 14.4575 19.8142 14.2326 20.2618C14.0294 20.6516 13.7248 21.5757 13.7755 21.6479C13.79 21.684 14.5082 21.7056 15.3643 21.7056C16.8805 21.7056 16.924 21.6984 17.0474 21.5468C17.5262 20.9404 17.8961 20.8032 19.0569 20.8032C20.3554 20.8032 21.0446 21.1064 21.1607 21.7273C21.2695 22.2976 20.7617 22.8102 19.8549 23.034C19.6155 23.099 18.8683 23.2289 18.1863 23.3372C16.2711 23.626 15.2119 24.0302 14.4212 24.745C13.7248 25.373 13.4346 26.1816 13.4346 27.4811C13.4346 29.2281 14.0585 30.3183 15.4151 30.9824C16.2929 31.4084 16.7209 31.4878 18.0775 31.4878C19.9057 31.4806 21.0809 31.2496 22.1038 30.6864C22.6842 30.3688 23.5112 29.4808 23.8231 28.8527C24.2947 27.8854 24.3382 27.5172 24.3745 24.3262C24.3963 21.6479 24.389 21.453 24.2512 20.9043C23.9972 19.9008 23.4604 19.2583 22.4738 18.7818C21.7991 18.4497 21.0301 18.262 19.9855 18.1754C19.0206 18.0888 18.6579 18.0888 17.8236 18.1754ZM21.1825 25.8712C21.1607 26.8674 21.1462 26.9685 20.9503 27.3944C20.5296 28.3113 19.6735 28.8383 18.5273 28.9105C17.8163 28.9466 17.3956 28.8527 17.0401 28.5568C16.5468 28.1525 16.4162 27.2284 16.7644 26.557C17.0328 26.03 17.4536 25.8206 18.861 25.4958C19.4486 25.3658 20.1886 25.1565 20.5078 25.041C20.827 24.9254 21.1172 24.8244 21.1462 24.8172C21.1825 24.8172 21.197 25.2864 21.1825 25.8712Z" fill="white"/>
<path d="M41.6916 18.1754C40.3785 18.3415 38.7752 19.0273 38.0643 19.7131C37.6218 20.1463 37.2663 20.796 37.0777 21.5252C36.831 22.442 36.7875 23.4816 36.8093 27.445L36.831 31.2712H38.4996H40.1681L40.2044 26.7592C40.2407 22.4853 40.2479 22.2327 40.3785 21.9656C40.6832 21.3591 41.2563 20.9693 42.0108 20.8466C43.1062 20.6733 44.1509 21.1426 44.5499 21.9944L44.7385 22.3915L44.7603 26.8458L44.782 31.3073H46.4071H48.0394V27.279C48.0394 25.0699 48.0756 23.0196 48.1119 22.738C48.1917 22.1027 48.3658 21.749 48.7648 21.388C49.9183 20.3484 52.0656 20.7671 52.5807 22.1244C52.6968 22.4276 52.7186 22.8535 52.7548 26.3621C52.7911 30.5926 52.7839 30.4699 53.2046 30.8453C53.5964 31.2063 53.8213 31.264 54.953 31.2929L56.0267 31.3218L56.0049 26.752C55.9759 22.3049 55.9686 22.1605 55.8163 21.6118C55.4245 20.204 54.8514 19.4966 53.6181 18.9046C52.3196 18.2693 51.0282 18.031 49.7079 18.1754C48.4311 18.3126 47.6403 18.558 46.9149 19.0273L46.4869 19.3089L46.0661 19.0201C45.834 18.8685 45.4277 18.6591 45.1665 18.558C44.296 18.2332 42.6492 18.0527 41.6916 18.1754Z" fill="white"/>
<path d="M61.7214 18.183C59.5523 18.4285 57.8693 19.8507 57.2236 21.9948C56.6505 23.908 56.7375 26.4347 57.434 28.1529C57.9853 29.5101 59.0663 30.6003 60.3866 31.1128C61.4458 31.5243 62.8677 31.6326 64.13 31.3872C66.1322 30.9973 67.5541 29.8928 68.2578 28.1673C68.6278 27.2722 68.7149 27.3371 67.1624 27.3371C66.3571 27.3371 65.7405 27.366 65.5881 27.4165C65.4503 27.4671 65.1311 27.7053 64.8627 27.958C64.3331 28.4633 64.0357 28.6149 63.3682 28.7088C61.6707 28.947 60.4519 27.9508 60.3213 26.2037L60.2778 25.6767L64.5145 25.6622L68.7511 25.6406L68.7366 24.6804C68.7221 23.6047 68.5263 22.4136 68.2361 21.6483C67.4598 19.5836 65.8566 18.3996 63.5351 18.1758C62.65 18.0892 62.534 18.0892 61.7214 18.183ZM63.7092 21.0275C64.217 21.1791 64.8482 21.7927 65.0368 22.3269C65.2254 22.8539 65.3125 23.4604 65.2037 23.5253C65.1601 23.5542 64.0357 23.5831 62.7008 23.5831H60.2778L60.3213 23.1211C60.4156 22.0959 61.025 21.2946 61.9246 21.013C62.3453 20.8831 63.2449 20.8903 63.7092 21.0275Z" fill="white"/>
<path d="M74.8443 18.1754C73.4151 18.3559 71.7031 19.1139 71.0356 19.872C70.7092 20.2401 70.2739 21.1931 70.1216 21.85C70.0127 22.3193 69.991 22.9618 69.9692 26.8458L69.9402 31.3073H71.6087H73.2846V27.2068C73.2846 24.8677 73.3208 22.8968 73.3571 22.6081C73.4514 21.98 73.7053 21.5541 74.1769 21.2292C74.6194 20.926 74.9966 20.8177 75.6423 20.8249C76.5781 20.8249 77.3254 21.2508 77.6881 21.98L77.8912 22.3915L77.9275 26.3405L77.9638 30.2822L78.1814 30.5926C78.312 30.7803 78.5441 30.9753 78.7618 31.0835C79.0882 31.2568 79.2115 31.2712 80.1619 31.2929L81.1993 31.3218L81.1775 26.7086C81.1485 22.2255 81.1485 22.0883 80.9889 21.5396C80.7713 20.7527 80.3795 20.0452 79.9298 19.6193C79.1898 18.9262 77.6881 18.327 76.3097 18.1754C75.5407 18.0888 75.5625 18.0888 74.8443 18.1754Z" fill="white"/>
<path d="M87.3226 18.1757C85.8354 18.3634 84.1378 19.1359 83.4994 19.9083C83.1149 20.3776 82.803 21.0345 82.6288 21.7565C82.4765 22.3629 82.4692 22.5867 82.4475 26.8533L82.4185 31.3076L84.1088 31.2932L85.7991 31.2715L85.8354 26.7595L85.8716 22.2474L86.0385 21.9081C86.3142 21.345 86.8945 20.9696 87.6418 20.8468C88.7227 20.6736 89.7456 21.1284 90.1591 21.9731L90.3695 22.3918L90.4058 26.3407L90.442 30.2825L90.6597 30.5929C90.7903 30.7806 91.0224 30.9755 91.24 31.0838C91.5737 31.2571 91.6681 31.2715 92.6547 31.2715H93.7066L93.7284 27.5536C93.7574 22.6878 93.6631 21.6843 93.09 20.5436C92.4588 19.3163 90.7975 18.3995 88.788 18.1757C88.019 18.0891 88.0408 18.0891 87.3226 18.1757Z" fill="white"/>
<path d="M24.5776 18.544C24.6574 18.8111 28.7128 30.297 28.9739 31.019C29.1698 31.5388 29.1843 32.2824 29.0102 32.5423C28.9449 32.6433 28.7128 32.8238 28.5096 32.9321C28.1687 33.1198 28.0381 33.1415 27.2546 33.1775L26.384 33.2209L26.3623 34.5276L26.3478 35.8343L26.7903 35.8848C28.0018 36.0075 29.518 35.8704 30.2072 35.5744C31.0197 35.2278 31.6799 34.2821 32.2095 32.7155C32.3255 32.3545 33.4573 29.012 34.7196 25.2868C35.9818 21.5545 37.012 18.479 37.012 18.4429C37.012 18.3996 36.4244 18.3852 35.6191 18.3996C34.0304 18.4213 33.791 18.4863 33.4573 18.9916C33.3339 19.1793 32.8987 20.5871 32.1079 23.3088C31.4695 25.5251 30.9181 27.3443 30.8746 27.3443C30.8383 27.3371 30.4393 26.0665 29.9896 24.5072C29.5398 22.9478 28.9957 21.0347 28.7708 20.2622C28.5459 19.4897 28.3283 18.7462 28.292 18.6162L28.2267 18.3852H26.3768H24.5269L24.5776 18.544Z" fill="white"/>
</svg>
