<svg width="416" height="178" viewBox="0 0 416 178" fill="none" xmlns="http://www.w3.org/2000/svg">
<rect width="416" height="178" rx="28" fill="#4F1754" fill-opacity="0.05"/>
<path d="M181.025 52.8511L186.958 58.7848L173.576 72.1673L186.958 85.5498L181.025 91.5257L161.708 72.1673L181.025 52.8511ZM205.517 52.8511L224.833 72.1673L205.517 91.5257L199.583 85.5498L212.966 72.1673L199.583 58.7848L205.517 52.8511ZM250.083 63.7507V114.251C250.083 118.922 246.338 122.667 241.667 122.667H174.333C169.704 122.667 165.917 118.922 165.917 114.251V97.4173H174.333V114.251H241.667V63.7507H229.168V55.334H241.667C246.338 55.334 250.083 59.0794 250.083 63.7507Z" fill="#4F1754"/>
</svg>
