<svg width="416" height="178" viewBox="0 0 416 178" fill="none" xmlns="http://www.w3.org/2000/svg">
<rect width="416" height="178" rx="28" fill="#4F1754" fill-opacity="0.05"/>
<path d="M235.354 53.229L243.771 61.6457L180.646 124.771L172.229 116.354L235.354 53.229ZM186.958 55.3332C193.944 55.3332 199.583 60.9723 199.583 67.9582C199.583 74.944 193.944 80.5832 186.958 80.5832C179.972 80.5832 174.333 74.944 174.333 67.9582C174.333 60.9723 179.972 55.3332 186.958 55.3332ZM229.042 97.4165C236.027 97.4165 241.667 103.056 241.667 110.042C241.667 117.027 236.027 122.667 229.042 122.667C222.056 122.667 216.417 117.027 216.417 110.042C216.417 103.056 222.056 97.4165 229.042 97.4165ZM186.958 63.7498C184.644 63.7498 182.75 65.6436 182.75 67.9582C182.75 70.2728 184.644 72.1665 186.958 72.1665C189.273 72.1665 191.167 70.2728 191.167 67.9582C191.167 65.6436 189.273 63.7498 186.958 63.7498ZM229.042 105.833C226.727 105.833 224.833 107.727 224.833 110.042C224.833 112.356 226.727 114.25 229.042 114.25C231.356 114.25 233.25 112.356 233.25 110.042C233.25 107.727 231.356 105.833 229.042 105.833Z" fill="#4F1754"/>
</svg>
