<svg width="416" height="178" viewBox="0 0 416 178" fill="none" xmlns="http://www.w3.org/2000/svg">
<rect width="416" height="178" rx="28" fill="#4F1754" fill-opacity="0.05"/>
<path d="M241.667 59.542C239.142 59.542 237.458 61.6462 237.458 64.1712V105.834C237.458 108.359 239.142 110.042 241.667 110.463C244.192 110.463 245.875 108.359 245.875 105.834V64.1712C245.875 61.6462 244.192 59.542 241.667 59.542ZM226.517 46.917H176.858C173.071 46.917 170.125 49.8628 170.125 53.6503V111.725C170.125 115.513 173.071 118.459 176.858 118.459H182.75V126.875C182.75 129.4 184.433 131.084 186.958 131.084H212.208C214.733 131.084 216.417 129.4 216.417 126.875V118.459H226.517C230.304 118.459 233.25 115.513 233.25 111.725V53.6503C233.25 49.8628 230.304 46.917 226.517 46.917ZM178.542 72.167H191.167V80.5837H178.542V72.167ZM208 84.792V93.2087H195.375V84.792H208ZM195.375 80.5837V72.167H208V80.5837H195.375ZM208 97.417V105.834H195.375V97.417H208ZM178.542 84.792H191.167V93.2087H178.542V84.792ZM178.542 105.834V97.417H191.167V105.834H178.542ZM191.167 126.875H186.958V118.459H191.167V126.875ZM212.208 126.875H199.583V118.459H212.208V126.875ZM224.833 105.834H212.208V97.417H224.833V105.834ZM224.833 93.2087H212.208V84.792H224.833V93.2087ZM224.833 80.5837H212.208V72.167H224.833V80.5837ZM224.833 63.7503H178.542V55.3337H224.833V63.7503Z" fill="#4F1754"/>
</svg>
