<svg width="416" height="178" viewBox="0 0 416 178" fill="none" xmlns="http://www.w3.org/2000/svg">
<rect width="416" height="178" rx="28" fill="#4F1754" fill-opacity="0.05"/>
<path d="M202.852 76.444C203.103 74.3723 203.292 72.3007 203.292 70.1662C203.292 68.0318 203.103 65.9601 202.852 63.8885H213.462C213.964 65.8973 214.278 68.0004 214.278 70.1662C214.278 72.3321 213.964 74.4351 213.462 76.444M197.296 93.8962C199.18 90.4121 200.624 86.6454 201.628 82.7218H210.888C207.874 87.901 203.072 91.9187 197.296 93.8962ZM196.512 76.444H181.822C181.508 74.3723 181.319 72.3007 181.319 70.1662C181.319 68.0318 181.508 65.9287 181.822 63.8885H196.512C196.794 65.9287 197.014 68.0318 197.014 70.1662C197.014 72.3007 196.794 74.3723 196.512 76.444ZM189.167 95.1518C186.561 91.3851 184.458 87.2104 183.171 82.7218H195.162C193.875 87.2104 191.772 91.3851 189.167 95.1518ZM176.611 57.6107H167.446C170.428 52.4001 175.261 48.3823 181.006 46.4362C179.122 49.9204 177.71 53.6871 176.611 57.6107ZM167.446 82.7218H176.611C177.71 86.6454 179.122 90.4121 181.006 93.8962C175.261 91.9187 170.428 87.901 167.446 82.7218ZM164.872 76.444C164.369 74.4351 164.056 72.3321 164.056 70.1662C164.056 68.0004 164.369 65.8973 164.872 63.8885H175.481C175.23 65.9601 175.042 68.0318 175.042 70.1662C175.042 72.3007 175.23 74.3723 175.481 76.444M189.167 45.1493C191.772 48.916 193.875 53.1221 195.162 57.6107H183.171C184.458 53.1221 186.561 48.916 189.167 45.1493ZM210.888 57.6107H201.628C200.624 53.6871 199.18 49.9204 197.296 46.4362C203.072 48.4137 207.874 52.4001 210.888 57.6107ZM189.167 38.7773C171.809 38.7773 157.778 52.9023 157.778 70.1662C157.778 78.4911 161.085 86.475 166.971 92.3615C169.886 95.2763 173.346 97.5883 177.155 99.1658C180.963 100.743 185.045 101.555 189.167 101.555C197.492 101.555 205.475 98.2481 211.362 92.3615C217.249 86.475 220.556 78.4911 220.556 70.1662C220.556 66.0442 219.744 61.9625 218.166 58.1542C216.589 54.3459 214.277 50.8857 211.362 47.9709C208.447 45.0562 204.987 42.7441 201.179 41.1667C197.37 39.5892 193.289 38.7773 189.167 38.7773Z" fill="#4F1754"/>
<path d="M255.083 98.4169L242.528 85.8613V95.278H220.556V101.556H242.528V110.972M211.139 104.695L198.583 117.25L211.139 129.806V120.389H233.111V114.111H211.139V104.695Z" fill="#4F1754"/>
</svg>
