<?xml version="1.0" encoding="utf-8"?>
<!-- Generator: Adobe Illustrator 22.0.1, SVG Export Plug-In . SVG Version: 6.00 Build 0)  -->
<svg version="1.0" id="katman_1" xmlns="http://www.w3.org/2000/svg" xmlns:xlink="http://www.w3.org/1999/xlink" x="0px" y="0px"
	 viewBox="0 0 900 675" style="enable-background:new 0 0 900 675;" xml:space="preserve">
<style type="text/css">
	.st0{fill:#E79226;}
	.st1{fill:#FEEF6F;}
	.st2{fill:url(#SVGID_1_);}
	.st3{fill:#FFFFFF;}
	.st4{fill:#0C99D7;}
	.st5{fill:#93C9EE;}
	.st6{fill:url(#SVGID_2_);}
	.st7{fill:#6AB96C;}
	.st8{fill:#9ACDA0;}
	.st9{fill:url(#SVGID_3_);}
	.st10{fill:#761519;}
	.st11{fill:#E94740;}
	.st12{fill:url(#SVGID_4_);}
</style>
<path class="st0" d="M829.9,264.1v179.7L805,468.1V292.3L829.9,264.1z"/>
<path class="st1" d="M666.9,264.3l-25.8,28l1.3,1.8l161.5-0.6l1.5-1.2l24.4-28.1L666.9,264.3L666.9,264.3z"/>
<linearGradient id="SVGID_1_" gradientUnits="userSpaceOnUse" x1="397.132" y1="388.4652" x2="397.132" y2="388.1755" gradientTransform="matrix(541.8305 0 0 -580.3932 -214454.9375 225757.3594)">
	<stop  offset="5.620000e-03" style="stop-color:#FFE516"/>
	<stop  offset="1" style="stop-color:#FBB92B"/>
</linearGradient>
<path class="st2" d="M641.2,292.3h164.3v176H641.2V292.3z"/>
<path class="st3" d="M780.4,355.6c-3.3-8.1-8.1-15.5-14.5-21.9c-6.1-6.2-12.9-11-20.6-14.1c-7.5-3.1-15.7-4.7-24.6-4.7
	s-17.2,1.6-24.7,4.7c-7.7,3.1-14.5,7.8-20.6,14.1c-6.4,6.4-11.1,13.8-14.4,21.9c-3.3,8.1-4.7,17-4.7,26.8c0,9.5,1.6,18.4,4.9,26.6
	c3.3,8.3,8,15.7,14.4,22.2c5.9,6.1,12.7,10.7,20.3,13.8s16,4.7,25,4.7c8.7,0,16.9-1.6,24.4-4.7c7.5-3.1,14.5-7.7,20.6-13.8
	c6.4-6.5,11.2-13.9,14.5-22.1c3.3-8.1,4.9-17.2,4.9-26.6C785.3,372.6,783.7,363.7,780.4,355.6L780.4,355.6z M746.5,413.6
	c-6.4,7.5-14.8,11.4-25.8,11.4s-19.5-3.8-25.9-11.4c-6.4-7.5-9.5-18.1-9.5-31.4c0-13.6,3.3-24.1,9.5-31.8
	c6.4-7.7,14.8-11.4,25.9-11.4c11,0,19.4,3.8,25.8,11.4c6.2,7.7,9.5,18.2,9.5,31.8C756,395.6,752.9,406.1,746.5,413.6z"/>
<g>
	<path class="st4" d="M625,249.5v0.9l21,161.5l-12.3,34l-1.6-1.2l-21.6-154.8l0.4-2.1l13.5-37.4C624.4,250.4,625,249.5,625,249.5z"
		/>
	<path class="st5" d="M463.3,272L625,249.5l-13.6,38.8l-1.9,2.1l-151.2,22.2l0.7-27.7L463.3,272L463.3,272z"/>
	
		<linearGradient id="SVGID_2_" gradientUnits="userSpaceOnUse" x1="397.9962" y1="388.4027" x2="398.2726" y2="388.1797" gradientTransform="matrix(596.5016 0 0 -593.5729 -236944.3125 230857.875)">
		<stop  offset="5.620000e-03" style="stop-color:#138BCC"/>
		<stop  offset="1" style="stop-color:#04659E"/>
	</linearGradient>
	<path class="st6" d="M611.4,288.3l22.3,157.6l-159.4,22.3l-21.5-152.3l9.3-7.3L611.4,288.3z"/>
	<path class="st3" d="M584.3,318.5c-0.7-4.9-2.4-8.6-5-11.1c-2.2-1.9-4.9-3-8-3c-0.7,0-1.6,0-2.5,0.1c-4.1,0.6-7.3,2.5-9.2,5.6
		c-1.5,2.2-2.1,5-2.1,8.3c0,1.2,0.1,2.5,0.3,3.8l5.8,41l-45.9,6.8l-5.8-41c-0.7-4.7-2.4-8.4-5-11c-2.2-2.1-4.9-3.1-7.8-3.1
		c-0.7,0-1.5,0-2.2,0.1c-4.3,0.6-7.5,2.5-9.6,5.6c-1.5,2.2-2.1,5-2.1,8.3c0,1.2,0.1,2.5,0.3,4l15.7,106.7c0.7,4.9,2.4,8.6,5.3,11.1
		c2.2,1.9,4.9,2.8,8.1,2.8c0.9,0,1.8,0,2.7-0.1c4-0.6,7-2.5,8.9-5.6c1.3-2.2,1.9-4.9,1.9-8c0-1.2-0.1-2.5-0.3-3.8l-6.4-42.2
		l45.9-6.8l6.4,42.2c0.7,4.9,2.4,8.6,5.2,11c2.2,1.9,4.9,3,8,3c0.7,0,1.6,0,2.5-0.1c4.1-0.6,7.3-2.5,9.2-5.6
		c1.3-2.2,2.1-4.9,2.1-8.1c0-1.2-0.1-2.5-0.3-3.8L584.3,318.5L584.3,318.5z"/>
</g>
<g>
	<path class="st7" d="M311.9,208.3l-57.6,136.7l7.8,60.1l0.4-0.1l64.7-145.5l-0.3-3.1l-13.9-46.2L311.9,208.3z"/>
	<path class="st8" d="M311.9,208.3l14.9,50.2l0.3,1l142.4,63.8l0.4-0.3l-12.1-47.9L311.9,208.3z"/>
	
		<linearGradient id="SVGID_3_" gradientUnits="userSpaceOnUse" x1="399.0354" y1="388.1957" x2="399.0354" y2="387.9842" gradientTransform="matrix(685.3423 0 0 -696.5695 -273109.7813 270722.4688)">
		<stop  offset="0" style="stop-color:#25A146"/>
		<stop  offset="1" style="stop-color:#078B53"/>
	</linearGradient>
	<path class="st9" d="M326.8,258.5L469.9,323l-64.7,146.7l-143.1-64.5L326.8,258.5L326.8,258.5z"/>
	<path class="st3" d="M426.6,334.9c-3.1-8.3-7.4-15.4-13-21.3c-5.6-5.9-12.4-10.7-20.4-14.1c-8-3.4-16-5-24.1-5h-0.4
		c-8.3,0-16.4,1.9-24.4,5.5c-8.4,3.7-15.7,8.7-21.9,15.4c-6.2,6.5-11.2,14.5-15.1,23.7c-3.8,9-5.9,18.2-6.4,27.2v3.1
		c0,8,1.3,15.8,4.1,23.5c3,8.1,7.3,15.1,12.9,21c5.6,5.9,12.6,10.7,20.9,14.1c7.8,3.4,15.8,5,24,5h0.1c8.1,0,16.3-1.8,24.3-5.2
		c8.4-3.7,15.8-8.9,22.1-15.5c6.2-6.5,11.4-14.4,15.2-23.5s5.9-18.2,6.4-27.2v-2.7C430.9,350.7,429.5,342.7,426.6,334.9L426.6,334.9
		z M398,377.5c-5.3,12.7-12.6,21.5-21.3,26.2c-4.7,2.5-9.6,3.8-14.5,3.8c-4.3,0-8.9-1-13.5-3c-10.1-4.3-16.3-11.1-18.9-20.9
		c-0.9-3.3-1.3-6.7-1.3-10.2c0-7.1,1.8-14.9,5.3-23.4c5.5-13,12.7-21.9,21.5-26.8c4.7-2.7,9.6-3.8,14.5-3.8c4.4,0,8.9,1,13.6,3
		c9.9,4.3,16.1,11.1,18.8,20.9c0.9,3.1,1.3,6.5,1.3,10.1C403.5,360.8,401.7,368.8,398,377.5z"/>
</g>
<g>
	<path class="st10" d="M242.9,231.6l23.4,156.6l-10.7,55.1l-1.5-1.9L231.4,290v-3l10.1-52.8L242.9,231.6L242.9,231.6z"/>
	<path class="st11" d="M72.1,312.5l11.1-55.3l159.7-25.6L232.1,288v3.7L74.1,314L72.1,312.5z"/>
	
		<linearGradient id="SVGID_4_" gradientUnits="userSpaceOnUse" x1="399.5903" y1="388.4176" x2="399.6322" y2="388.1599" gradientTransform="matrix(605.2881 0 0 -593.5728 -241714.875 230856.875)">
		<stop  offset="0" style="stop-color:#DA2331"/>
		<stop  offset="1" style="stop-color:#BB2435"/>
	</linearGradient>
	<path class="st12" d="M232.1,288l23.5,155.2L97.6,467.9L72.1,312.5L232.1,288L232.1,288z"/>
	<path class="st3" d="M215.1,418.5c-1.2-1.5-3-2.5-5-3.3c-2.1-0.7-4.6-1-7.7-1c-2.8,0-6.1,0.3-9.6,0.9l-41.7,7.1
		c0.4-3.3,2.1-7.4,4.9-12.6c3.1-5.8,7.8-12.7,13.9-20.7c2.1-2.8,3.7-4.9,4.9-6.4c0.7-1,1.9-2.4,3.4-4.3
		c9.6-12.6,15.4-22.8,17.8-30.8c1.3-4.6,2.1-9.2,2.4-13.8c0.1-1.3,0.1-2.5,0.1-3.7c0-3.3-0.3-6.5-0.9-9.8c-0.4-3-1.2-5.3-2.2-7.3
		s-2.2-3.4-3.7-4.3c-1.6-1-4.1-1.5-7.3-1.5c-2.5,0-5.6,0.3-9.3,0.9l-48.2,8.3c-5.8,1-10.2,2.7-12.9,5.3c-2.2,2.1-3.3,4.7-3.3,7.7
		c0,0.7,0,1.6,0.1,2.5c0.7,4.1,2.8,7.1,6.2,8.6c2.1,0.9,4.4,1.3,7.4,1.3c1.9,0,4.1-0.1,6.5-0.6l40.3-7.1c0,0.7,0.1,1.5,0.1,2.1
		c0,2.5-0.4,5-1.3,7.4c-1.2,3.4-4.1,8.1-9,14.2c-1.3,1.6-3.4,4.3-6.2,7.7c-11,13.2-18.6,24.4-23.4,33.7c-3.4,6.5-5.6,12.7-7,19.1
		c-0.7,3.7-1.2,7.1-1.2,10.5c0,2.4,0.1,4.7,0.6,7c0.6,3.3,1.3,5.9,2.4,8c1,2.1,2.5,3.7,4.1,4.6c1.6,0.9,3.8,1.2,7.1,1.2
		c4,0,9.5-0.6,16.4-1.8l43.8-7.5c7.7-1.3,13.2-3.3,16.3-5.8c2.5-2.1,3.8-4.9,3.8-8.1c0-0.9-0.1-1.8-0.3-2.7
		C217.2,421.8,216.4,420,215.1,418.5z"/>
</g>
</svg>
