<svg width="416" height="178" viewBox="0 0 416 178" fill="none" xmlns="http://www.w3.org/2000/svg">
<rect width="416" height="178" rx="28" fill="#4F1754" fill-opacity="0.05"/>
<path d="M249.83 125.034L222.508 97.7114C226.748 92.23 229.041 85.5283 229.041 78.4794C229.041 70.0417 225.748 62.1301 219.794 56.1648C213.839 50.1995 205.906 46.917 197.479 46.917C189.052 46.917 181.119 50.21 175.164 56.1648C169.199 62.1195 165.917 70.0417 165.917 78.4794C165.917 86.9065 169.21 94.8392 175.164 100.794C181.119 106.759 189.041 110.042 197.479 110.042C204.528 110.042 211.219 107.748 216.7 103.519L244.023 130.831C244.103 130.911 244.198 130.975 244.303 131.018C244.408 131.061 244.52 131.084 244.633 131.084C244.746 131.084 244.859 131.061 244.963 131.018C245.068 130.975 245.163 130.911 245.243 130.831L249.83 126.254C249.911 126.174 249.974 126.079 250.018 125.974C250.061 125.87 250.083 125.757 250.083 125.644C250.083 125.531 250.061 125.418 250.018 125.314C249.974 125.209 249.911 125.114 249.83 125.034ZM214.144 95.1443C209.683 99.5946 203.77 102.046 197.479 102.046C191.188 102.046 185.275 99.5946 180.814 95.1443C176.364 90.6835 173.912 84.7708 173.912 78.4794C173.912 72.1879 176.364 66.2647 180.814 61.8144C185.275 57.3641 191.188 54.9128 197.479 54.9128C203.77 54.9128 209.694 57.3536 214.144 61.8144C218.594 66.2752 221.046 72.1879 221.046 78.4794C221.046 84.7708 218.594 90.694 214.144 95.1443Z" fill="#4F1754"/>
</svg>
