<svg width="416" height="178" viewBox="0 0 416 178" fill="none" xmlns="http://www.w3.org/2000/svg">
<rect width="416" height="178" rx="28" fill="#4F1754" fill-opacity="0.05"/>
<path d="M199.583 55.333C195.119 55.333 190.837 57.1065 187.68 60.2634C184.523 63.4202 182.75 67.7019 182.75 72.1663C182.75 76.6308 184.523 80.9124 187.68 84.0693C190.837 87.2262 195.119 88.9997 199.583 88.9997C204.048 88.9997 208.329 87.2262 211.486 84.0693C214.643 80.9124 216.417 76.6308 216.417 72.1663C216.417 67.7019 214.643 63.4202 211.486 60.2634C208.329 57.1065 204.048 55.333 199.583 55.333ZM199.583 63.7497C201.816 63.7497 203.956 64.6364 205.535 66.2149C207.113 67.7933 208 69.9341 208 72.1663C208 74.3986 207.113 76.5394 205.535 78.1178C203.956 79.6963 201.816 80.583 199.583 80.583C197.351 80.583 195.21 79.6963 193.632 78.1178C192.053 76.5394 191.167 74.3986 191.167 72.1663C191.167 69.9341 192.053 67.7933 193.632 66.2149C195.21 64.6364 197.351 63.7497 199.583 63.7497ZM229.042 88.9997C228.368 88.9997 228.032 89.3363 228.032 90.0097L226.937 95.3122C226.012 96.0697 224.665 96.743 223.655 97.4163L218.268 95.3122C217.932 95.3122 217.258 95.3122 216.922 95.733L212.882 103.14C212.545 103.476 212.545 104.15 213.218 104.486L217.595 107.937V112.146L213.218 115.596C212.882 115.933 212.545 116.606 212.882 116.943L216.922 124.35C217.258 124.771 217.932 124.771 218.268 124.771L223.655 122.666C224.665 123.34 226.012 124.013 226.937 124.771L228.032 130.073C228.032 130.746 228.368 131.083 229.042 131.083H237.458C237.795 131.083 238.468 130.746 238.468 130.073L239.142 124.771C240.488 124.013 241.835 123.34 242.845 122.666L247.979 124.771C248.568 124.771 249.242 124.771 249.242 124.35L253.618 116.943C253.955 116.606 253.618 115.933 253.282 115.596L248.905 112.146V107.937L253.282 104.486C253.618 104.15 253.955 103.476 253.618 103.14L249.242 95.733C249.242 95.3122 248.568 95.3122 247.979 95.3122L242.845 97.4163C241.835 96.743 240.488 96.0697 239.142 95.3122L238.468 90.0097C238.468 89.3363 237.795 88.9997 237.458 88.9997H229.042ZM199.583 93.208C188.347 93.208 165.917 98.8051 165.917 110.041V122.666H206.611C205.433 120.183 204.591 117.49 204.17 114.671H173.912V110.041C173.912 107.348 187.085 101.204 199.583 101.204C201.393 101.204 203.245 101.372 205.054 101.625C205.896 98.9313 207.032 96.4063 208.505 94.0918C205.222 93.5447 202.108 93.208 199.583 93.208ZM233.418 103.729C236.785 103.729 239.562 106.506 239.562 110.21C239.562 113.576 236.785 116.354 233.418 116.354C229.715 116.354 226.937 113.576 226.937 110.21C226.937 106.506 229.715 103.729 233.418 103.729Z" fill="#4F1754"/>
</svg>
